PathFileType   4   (X/Y/Z)
DataRate  CameraRate  NumFrames  NumMarkers  Units  OrigDataRate  OrigDataStartFrame  OrigNumFrames  
  120.0      120.0        9         37         mm      120.0          121        160
Frame#      Time                    midhip                           hip_r                           hip_l                          knee_r                          knee_l                         ankle_r                         ankle_l                         midasis                          asis_r                          asis_l                          psis_r                          psis_l                    epicondLat_r                    epicondLat_l                    epicondMed_r                    epicondMed_l                  malleolusLat_r                  malleolusLat_l                 malleolusMedv_r                 malleolusMedv_l                            neck                   subclavicle_r                   subclavicle_l                    sternalnotch                  xyphoidprocess                     thighwand_r                     thighwand_l                     upperleg1_r                     upperleg1_l                     upperleg2_r                     upperleg2_l                     shankwand_r                     shankwand_l                     lowerleg1_r                     lowerleg1_l                           toe_r                           toe_l            
              X1          Y1          Z1          X2          Y2          Z2          X3          Y3          Z3          X4          Y4          Z4          X5          Y5          Z5          X6          Y6          Z6          X7          Y7          Z7          X8          Y8          Z8          X9          Y9          Z9          X10          Y10          Z10          X11          Y11          Z11          X12          Y12          Z12          X13          Y13          Z13          X14          Y14          Z14          X15          Y15          Z15          X16          Y16          Z16          X17          Y17          Z17          X18          Y18          Z18          X19          Y19          Z19          X20          Y20          Z20          X21          Y21          Z21          X22          Y22          Z22          X23          Y23          Z23          X24          Y24          Z24          X25          Y25          Z25          X26          Y26          Z26          X27          Y27          Z27          X28          Y28          Z28          X29          Y29          Z29          X30          Y30          Z30          X31          Y31          Z31          X32          Y32          Z32          X33          Y33          Z33          X34          Y34          Z34          X35          Y35          Z35          X36          Y36          Z36          X37          Y37          Z37          

	121	1.10000	1290.542	761.491	-223.812	1284.682	761.694	-166.684	1296.402	761.288	-280.939	1319.484	417.775	-150.017	1226.939	403.088	-285.527	1345.635	64.494	-157.102	959.992	170.310	-281.848	1323.715	834.720	-221.501	1327.589	841.610	-111.205	1319.841	827.831	-331.797	1146.793	862.646	-183.255	1148.207	859.111	-236.692	1354.014	422.744	-91.068	1232.095	391.775	-342.748	1324.954	418.816	-208.221	1262.859	392.639	-216.174	1340.494	63.598	-119.967	954.910	175.858	-317.564	1346.289	61.008	-190.580	955.964	177.925	-248.304	1202.358	1259.038	-202.547	1303.873	1178.994	-156.201	1303.793	1184.680	-261.359	1300.983	1181.981	-211.852	1300.590	1080.110	-219.880	1439.682	581.268	-129.558	1358.774	537.942	-362.380	1383.778	607.830	-86.990	1346.801	582.575	-295.708	1383.260	550.498	-92.131	1337.109	525.798	-286.330	1465.392	185.806	-130.251	1032.855	243.193	-407.802	1388.235	168.388	-146.105	1024.487	240.018	-329.584	1428.548	48.136	-146.166	989.143	83.889	-269.427
	122	1.10833	1301.011	762.543	-223.676	1295.185	762.584	-166.544	1306.836	762.501	-280.807	1326.790	416.520	-149.819	1248.432	403.926	-286.437	1345.956	64.596	-157.246	982.623	171.474	-281.439	1334.483	835.709	-221.075	1338.441	842.205	-110.481	1330.525	829.213	-331.668	1157.845	864.205	-182.643	1159.112	860.630	-236.119	1357.916	422.614	-90.804	1254.364	392.722	-343.723	1333.397	417.661	-208.628	1283.909	393.497	-218.954	1340.696	63.718	-120.128	977.437	176.926	-317.155	1346.817	60.974	-190.702	979.257	179.153	-247.931	1215.217	1261.017	-202.216	1316.381	1180.351	-156.188	1315.974	1186.085	-261.375	1313.317	1183.381	-211.844	1312.278	1081.518	-219.913	1446.396	579.567	-128.733	1376.325	542.192	-363.230	1389.464	606.864	-86.551	1362.793	586.230	-296.572	1389.372	549.729	-91.713	1354.719	529.381	-287.708	1466.862	184.603	-129.927	1055.292	244.147	-407.783	1389.685	167.917	-146.105	1047.490	240.935	-329.904	1428.710	47.879	-146.111	1013.837	86.335	-269.941
	123	1.11667	1311.487	763.517	-223.595	1305.679	763.398	-166.462	1317.295	763.635	-280.729	1331.900	416.288	-149.709	1269.807	405.124	-287.397	1346.247	64.707	-157.420	1006.125	171.648	-280.764	1345.196	836.613	-220.695	1349.212	842.721	-109.774	1341.179	830.505	-331.616	1168.726	865.631	-182.178	1170.050	862.011	-235.559	1361.660	422.472	-90.627	1276.543	394.025	-344.822	1339.274	417.495	-209.136	1303.875	394.755	-221.681	1340.903	63.850	-120.313	1000.752	176.988	-316.469	1347.390	60.841	-190.841	1003.305	179.607	-247.305	1227.624	1262.972	-201.835	1328.513	1181.530	-156.073	1328.338	1187.390	-261.805	1325.572	1184.642	-212.007	1323.990	1082.793	-220.169	1452.882	577.850	-128.240	1393.905	546.609	-363.785	1395.673	606.189	-86.352	1378.491	590.077	-297.108	1395.213	548.973	-91.595	1371.824	532.907	-288.703	1468.240	183.475	-129.762	1078.064	244.531	-407.625	1391.077	167.453	-146.281	1070.853	241.481	-330.069	1428.895	47.682	-146.109	1040.008	88.017	-270.569
	124	1.12500	1321.931	764.460	-223.535	1316.120	764.173	-166.403	1327.742	764.747	-280.667	1335.103	416.950	-149.660	1289.904	407.162	-288.333	1346.516	64.824	-157.629	1030.483	170.816	-279.872	1355.859	837.467	-220.325	1359.901	843.167	-109.084	1351.818	831.768	-331.567	1179.469	866.974	-181.805	1180.969	863.328	-235.052	1365.263	422.323	-90.538	1298.510	395.645	-346.021	1342.772	417.389	-208.222	1321.224	396.789	-224.200	1341.123	63.988	-120.528	1024.836	176.042	-315.552	1347.379	61.133	-191.060	1027.719	178.143	-246.393	1239.748	1264.590	-201.418	1340.578	1182.482	-156.548	1340.409	1188.608	-262.116	1337.641	1185.745	-212.399	1335.664	1083.925	-220.824	1459.185	576.104	-128.017	1411.450	551.167	-364.131	1402.659	605.859	-86.646	1393.940	594.168	-297.320	1401.048	548.497	-91.485	1388.013	535.989	-289.191	1469.533	182.403	-129.760	1101.088	244.339	-407.331	1392.154	167.027	-146.113	1094.762	241.148	-328.865	1429.100	47.533	-146.192	1067.506	88.951	-271.303
	125	1.13333	1332.310	765.393	-223.462	1326.481	764.914	-166.333	1338.139	765.872	-280.591	1338.158	417.223	-149.667	1310.398	409.299	-289.412	1346.761	64.943	-157.870	1055.684	169.004	-278.830	1366.474	838.293	-219.931	1370.505	843.536	-108.412	1362.443	833.049	-331.451	1190.121	868.288	-181.488	1191.792	864.658	-234.634	1368.742	422.177	-90.532	1320.157	397.535	-347.286	1345.890	416.140	-205.767	1339.746	399.454	-225.038	1341.358	64.131	-120.770	1049.681	174.115	-314.469	1347.269	61.422	-191.308	1053.311	175.718	-245.353	1251.547	1266.129	-201.160	1352.724	1183.572	-157.073	1352.041	1189.633	-262.475	1349.515	1186.808	-212.827	1347.255	1084.988	-221.187	1465.342	574.311	-127.988	1428.839	555.829	-364.394	1409.430	605.196	-87.209	1409.402	598.590	-297.016	1406.709	548.071	-91.110	1404.510	539.847	-288.975	1470.751	181.373	-129.930	1124.325	243.564	-406.916	1393.090	166.594	-146.025	1119.366	240.203	-327.784	1429.322	47.417	-146.372	1096.190	89.180	-272.128
	126	1.14167	1342.610	766.340	-223.376	1336.740	765.628	-166.253	1348.481	767.051	-280.498	1341.038	417.251	-149.708	1334.378	409.110	-290.751	1346.973	65.062	-158.137	1081.719	166.246	-277.724	1377.027	839.098	-219.486	1381.024	843.819	-107.756	1373.030	834.377	-331.217	1200.720	869.614	-181.183	1202.462	866.057	-234.325	1372.119	422.048	-90.591	1341.391	399.647	-348.574	1348.633	414.552	-203.034	1364.361	401.650	-223.096	1341.603	64.274	-121.032	1075.287	171.247	-313.303	1347.418	61.374	-191.544	1080.092	172.942	-244.282	1263.148	1267.757	-201.348	1364.790	1184.674	-157.292	1363.557	1190.511	-262.967	1361.290	1187.798	-213.167	1358.726	1085.966	-221.282	1471.389	572.465	-128.081	1445.921	560.547	-364.720	1416.121	604.298	-87.808	1424.711	602.765	-296.795	1412.258	547.180	-90.730	1422.507	544.703	-288.426	1471.909	180.374	-130.276	1147.772	242.207	-406.404	1394.057	166.092	-146.309	1144.164	238.748	-327.561	1429.549	47.325	-146.646	1125.919	88.767	-273.032
	127	1.15000	1352.835	767.312	-223.292	1346.894	766.319	-166.182	1358.777	768.305	-280.403	1343.416	417.830	-149.804	1358.062	408.592	-292.100	1347.144	65.181	-158.420	1108.578	162.584	-276.647	1387.515	839.889	-218.983	1391.463	844.012	-107.112	1383.566	835.767	-330.855	1211.286	870.974	-180.867	1212.869	867.587	-234.134	1375.425	421.942	-90.700	1362.151	401.934	-349.848	1350.715	414.643	-202.406	1388.326	404.183	-221.216	1341.850	64.415	-121.303	1101.655	167.481	-312.148	1347.549	61.374	-191.811	1107.366	168.748	-243.191	1275.269	1269.004	-201.747	1377.021	1185.597	-157.946	1375.264	1191.415	-263.265	1373.244	1188.719	-213.629	1370.392	1086.892	-221.726	1477.340	570.560	-128.240	1462.544	565.262	-365.237	1423.066	603.455	-88.044	1439.590	606.704	-297.509	1417.776	545.797	-90.777	1439.966	548.978	-288.466	1473.020	179.408	-130.786	1171.447	240.284	-405.840	1395.060	165.720	-146.710	1169.164	236.364	-326.777	1429.778	47.248	-146.995	1156.536	87.764	-273.992
	128	1.15833	1362.921	768.300	-223.186	1356.908	766.989	-166.090	1368.934	769.611	-280.283	1344.685	419.574	-150.003	1378.715	409.641	-293.358	1347.266	65.299	-158.707	1136.253	158.075	-275.699	1397.939	840.667	-218.431	1401.829	844.116	-106.482	1394.048	837.218	-330.381	1221.835	872.365	-180.535	1222.953	869.258	-234.056	1378.690	421.858	-90.840	1382.401	404.349	-351.083	1352.201	417.383	-205.292	1408.430	407.336	-220.991	1342.086	64.553	-121.574	1128.786	162.872	-311.103	1347.750	61.506	-192.111	1135.102	163.591	-242.193	1287.611	1269.641	-201.802	1389.207	1186.620	-158.709	1387.057	1192.321	-263.489	1385.222	1189.679	-214.111	1382.386	1087.845	-222.114	1483.217	568.607	-128.401	1478.660	569.931	-366.040	1429.954	602.364	-88.018	1454.361	610.802	-298.992	1422.864	544.678	-91.605	1456.325	552.593	-289.313	1474.097	178.484	-131.431	1195.384	237.833	-405.283	1396.372	165.531	-147.168	1194.473	233.618	-325.597	1430.005	47.189	-147.391	1187.896	86.229	-274.999
	129	1.16667	1372.775	769.286	-222.998	1366.753	767.634	-165.911	1378.798	770.939	-280.085	1345.601	421.729	-150.255	1397.591	412.243	-294.563	1347.341	65.419	-158.985	1164.732	152.798	-274.971	1408.313	841.429	-217.850	1412.134	844.144	-105.873	1404.492	838.714	-329.827	1232.383	873.758	-180.214	1232.730	871.033	-234.068	1381.934	421.786	-90.999	1402.126	406.840	-352.263	1353.995	420.987	-209.682	1427.731	409.996	-223.064	1342.306	64.692	-121.832	1156.676	157.498	-310.259	1347.933	61.602	-192.397	1164.155	158.182	-241.481	1299.711	1270.349	-201.398	1401.050	1187.564	-158.859	1398.668	1192.962	-264.064	1396.943	1190.466	-214.468	1393.968	1088.610	-222.147	1489.020	566.608	-128.514	1494.214	574.514	-367.158	1436.268	601.011	-87.965	1469.229	614.894	-300.320	1427.415	543.780	-92.761	1472.460	556.322	-290.818	1475.161	177.606	-132.168	1219.613	234.909	-404.799	1397.717	165.278	-147.649	1220.296	230.536	-325.390	1430.231	47.149	-147.806	1219.875	84.224	-276.059
